<svg xmlns="http://www.w3.org/2000/svg" viewBox="0 0 100 100" fill="none">
  <rect width="100" height="100" rx="20" fill="#3B82F6"/>
  <path d="M50 25C36.2 25 25 36.2 25 50s11.2 25 25 25 25-11.2 25-25S63.8 25 50 25zm0 45c-11 0-20-9-20-20s9-20 20-20 20 9 20 20-9 20-20 20z" fill="white" opacity="0.3"/>
  <path d="M50 35c-8.3 0-15 6.7-15 15s6.7 15 15 15 15-6.7 15-15-6.7-15-15-15zm0 25c-5.5 0-10-4.5-10-10s4.5-10 10-10 10 4.5 10 10-4.5 10-10 10z" fill="white" opacity="0.5"/>
  <circle cx="50" cy="50" r="6" fill="white"/>
  <path d="M30 38l-4-4M70 38l4-4M30 62l-4 4M70 62l4 4" stroke="white" stroke-width="2.5" stroke-linecap="round" opacity="0.6"/>
</svg>
